<!-- Generated by IcoMoon.io -->
<svg version="1.1" xmlns="http://www.w3.org/2000/svg" width="1024" height="1024" viewBox="0 0 1024 1024">
<title>file-pdf</title>
<g id="icomoon-ignore">
</g>
<path fill="#4885ed" d="M466.347 87.253c-23.339 15.616-137.387 91.307-253.355 168.32-116.053 76.971-210.859 140.629-210.859 141.397 0 0.811 5.803 4.693 13.013 8.533 7.125 4.096 121.6 67.541 254.507 141.227l241.323 134.101 6.144-3.157c3.499-1.707 92.544-52.565 198.059-112.725l191.701-109.568 1.152 339.072h113.835v-396.843l-147.627-98.987c-198.997-133.291-358.059-238.336-361.984-239.189-1.92-0.341-22.485 12.245-45.909 27.819zM228.48 709.675l0.597 85.547 282.453 169.344 142.379-85.333 142.165-85.547v-84.565c0-46.592-0.555-84.608-1.152-84.608s-56.235 33.365-123.733 74.283l-141.056 85.163-18.389 10.923-56.32-33.749c-160.611-92.382-206.377-120.32-252.049-148.397l111.846 63.959-85.547-51.627c-1.024-0.341-1.365 37.675-1.152 84.608z"></path>
</svg>
